<svg width="31" height="31" viewBox="0 0 31 31" fill="none" xmlns="http://www.w3.org/2000/svg">
<path d="M28.435 0.949998C29.1583 1.09 29.695 1.335 30.045 1.685C30.4183 2.035 30.605 2.44333 30.605 2.91C30.605 3.68 30.3833 4.24 29.94 4.59C29.52 4.94 28.8433 5.08 27.91 5.01C25.81 4.84667 24.165 4.74167 22.975 4.695C21.8083 4.625 20.2683 4.57833 18.355 4.555C17.4917 8.84833 16.6983 13.165 15.975 17.505C15.7183 19.0917 15.45 20.935 15.17 23.035C14.89 25.1117 14.7033 26.7917 14.61 28.075C14.5633 28.7517 14.2833 29.2767 13.77 29.65C13.2567 30 12.6383 30.175 11.915 30.175C11.145 30.175 10.55 29.9883 10.13 29.615C9.71 29.2417 9.5 28.7517 9.5 28.145C9.5 27.585 9.58167 26.6633 9.745 25.38C9.93167 24.0733 10.1417 22.7083 10.375 21.285C10.6317 19.8617 10.83 18.625 10.97 17.575C11.2267 15.8017 11.5183 14.04 11.845 12.29C12.1717 10.54 12.4983 8.88333 12.825 7.32C12.895 6.97 12.9767 6.57333 13.07 6.13C13.1633 5.66333 13.2683 5.15 13.385 4.59C11.0983 4.66 9.30167 4.84667 7.995 5.15C6.68833 5.45333 5.755 5.885 5.195 6.445C4.65833 6.98167 4.39 7.68167 4.39 8.545C4.39 9.33833 4.62333 10.0967 5.09 10.82C5.18333 10.9833 5.23 11.1583 5.23 11.345C5.23 11.7883 4.96167 12.2083 4.425 12.605C3.91167 12.9783 3.375 13.165 2.815 13.165C2.41833 13.165 2.09167 13.0483 1.835 12.815C1.36833 12.4183 0.983333 11.8583 0.68 11.135C0.376667 10.3883 0.225 9.54833 0.225 8.615C0.225 6.63167 0.866667 5.045 2.15 3.855C3.45667 2.64167 5.42833 1.755 8.065 1.195C10.725 0.634998 14.1317 0.354998 18.285 0.354998C20.8517 0.354998 22.8933 0.401665 24.41 0.494998C25.95 0.588332 27.2917 0.739998 28.435 0.949998Z" fill="white"/>
</svg>
