<svg width="184" height="129" viewBox="0 0 184 129" fill="none" xmlns="http://www.w3.org/2000/svg">
<mask id="mask0_1_2" style="mask-type:luminance" maskUnits="userSpaceOnUse" x="58" y="23" width="66" height="55">
<path d="M58.0611 69.7002L87.2697 23L123.591 77.8382L103.362 60.7013L102.92 69.7002L87.2697 44.4171L80.3907 64.5185L76.1465 50.4191L58.0611 69.7002Z" fill="white"/>
</mask>
<g mask="url(#mask0_1_2)">
<path d="M87.2696 16.0153L150.598 111.552H23.9413L87.2696 16.0153Z" fill="#4285F4" stroke="#231F20" stroke-miterlimit="10"/>
</g>
<mask id="mask1_1_2" style="mask-type:luminance" maskUnits="userSpaceOnUse" x="101" y="31" width="45" height="38">
<path d="M101.47 63.4302L121.189 31.9096L145.712 68.9286L132.054 57.3551L131.762 63.4302L121.189 46.3663L116.553 59.9378L113.685 50.4191L101.47 63.4302Z" fill="white"/>
</mask>
<g mask="url(#mask1_1_2)">
<path d="M121.189 27.1908L163.939 91.6858H78.4395L121.189 27.1908Z" fill="#4285F4" stroke="#231F20" stroke-miterlimit="10"/>
</g>
<mask id="mask2_1_2" style="mask-type:luminance" maskUnits="userSpaceOnUse" x="39" y="27" width="31" height="33">
<path d="M64.8233 52.2952L58.7198 42.4435L54.0754 56.015L51.2154 46.4963L39 59.5074L58.7198 27.9868L69.7095 51.077L67.9585 53.8708L66.8495 55.6495L64.8233 52.2952Z" fill="white"/>
</mask>
<g mask="url(#mask2_1_2)">
<path d="M58.7198 23.5036L101.47 87.9985H15.97L58.7198 23.5036Z" fill="#4285F4" stroke="#231F20" stroke-miterlimit="10"/>
</g>
<path d="M55.435 79.95C56.1583 80.09 56.695 80.335 57.045 80.685C57.4183 81.035 57.605 81.4433 57.605 81.91C57.605 82.68 57.3833 83.24 56.94 83.59C56.52 83.94 55.8433 84.08 54.91 84.01C52.81 83.8467 51.165 83.7417 49.975 83.695C48.8083 83.625 47.2683 83.5783 45.355 83.555C44.4917 87.8483 43.6983 92.165 42.975 96.505C42.7183 98.0917 42.45 99.935 42.17 102.035C41.89 104.112 41.7033 105.792 41.61 107.075C41.5633 107.752 41.2833 108.277 40.77 108.65C40.2567 109 39.6383 109.175 38.915 109.175C38.145 109.175 37.55 108.988 37.13 108.615C36.71 108.242 36.5 107.752 36.5 107.145C36.5 106.585 36.5817 105.663 36.745 104.38C36.9317 103.073 37.1417 101.708 37.375 100.285C37.6317 98.8617 37.83 97.625 37.97 96.575C38.2267 94.8017 38.5183 93.04 38.845 91.29C39.1717 89.54 39.4983 87.8833 39.825 86.32C39.895 85.97 39.9767 85.5733 40.07 85.13C40.1633 84.6633 40.2683 84.15 40.385 83.59C38.0983 83.66 36.3017 83.8467 34.995 84.15C33.6883 84.4533 32.755 84.885 32.195 85.445C31.6583 85.9817 31.39 86.6817 31.39 87.545C31.39 88.3383 31.6233 89.0967 32.09 89.82C32.1833 89.9833 32.23 90.1583 32.23 90.345C32.23 90.7883 31.9617 91.2083 31.425 91.605C30.9117 91.9783 30.375 92.165 29.815 92.165C29.4183 92.165 29.0917 92.0483 28.835 91.815C28.3683 91.4183 27.9833 90.8583 27.68 90.135C27.3767 89.3883 27.225 88.5483 27.225 87.615C27.225 85.6317 27.8667 84.045 29.15 82.855C30.4567 81.6417 32.4283 80.755 35.065 80.195C37.725 79.635 41.1317 79.355 45.285 79.355C47.8517 79.355 49.8933 79.4017 51.41 79.495C52.95 79.5883 54.2917 79.74 55.435 79.95ZM53.5097 109.175C52.6231 109.175 51.9931 108.708 51.6197 107.775C51.2697 106.842 51.0947 105.348 51.0947 103.295C51.0947 100.262 51.5264 97.38 52.3897 94.65C52.5997 93.9733 52.9381 93.4833 53.4047 93.18C53.8947 92.8533 54.5714 92.69 55.4347 92.69C55.9014 92.69 56.2281 92.7483 56.4147 92.865C56.6014 92.9817 56.6947 93.2033 56.6947 93.53C56.6947 93.9033 56.5197 94.7433 56.1697 96.05C55.9364 96.9833 55.7497 97.8 55.6097 98.5C55.4697 99.2 55.3531 100.063 55.2597 101.09C56.0297 99.0833 56.8931 97.45 57.8497 96.19C58.8064 94.93 59.7397 94.0317 60.6497 93.495C61.5831 92.9583 62.4347 92.69 63.2047 92.69C64.7214 92.69 65.4797 93.4483 65.4797 94.965C65.4797 95.2683 65.3747 96.0033 65.1647 97.17C64.9781 98.1033 64.8847 98.6867 64.8847 98.92C64.8847 99.7367 65.1764 100.145 65.7597 100.145C66.4131 100.145 67.2531 99.6317 68.2797 98.605C68.5831 98.3017 68.8981 98.15 69.2247 98.15C69.5281 98.15 69.7614 98.29 69.9247 98.57C70.1114 98.8267 70.2047 99.1767 70.2047 99.62C70.2047 100.483 69.9714 101.16 69.5047 101.65C68.8514 102.327 68.0814 102.91 67.1947 103.4C66.3314 103.867 65.4097 104.1 64.4297 104.1C63.1931 104.1 62.2481 103.785 61.5947 103.155C60.9647 102.525 60.6497 101.673 60.6497 100.6C60.6497 100.25 60.6847 99.9 60.7547 99.55C60.8014 99.0833 60.8247 98.7683 60.8247 98.605C60.8247 98.2317 60.6964 98.045 60.4397 98.045C60.0897 98.045 59.6231 98.4417 59.0397 99.235C58.4797 100.005 57.9197 101.032 57.3597 102.315C56.7997 103.598 56.3447 104.952 55.9947 106.375C55.7381 107.472 55.4347 108.218 55.0847 108.615C54.7581 108.988 54.2331 109.175 53.5097 109.175ZM71.2575 109.175C69.8108 109.175 68.6558 108.65 67.7925 107.6C66.9291 106.55 66.4975 105.173 66.4975 103.47C66.4975 101.603 66.9291 99.8417 67.7925 98.185C68.6558 96.505 69.7991 95.1633 71.2225 94.16C72.6691 93.1333 74.1975 92.62 75.8075 92.62C76.3208 92.62 76.6591 92.725 76.8225 92.935C77.0091 93.1217 77.1608 93.4717 77.2775 93.985C77.7675 93.8917 78.2808 93.845 78.8175 93.845C79.9608 93.845 80.5325 94.2533 80.5325 95.07C80.5325 95.56 80.3575 96.7267 80.0075 98.57C79.4708 101.253 79.2025 103.12 79.2025 104.17C79.2025 104.52 79.2841 104.8 79.4475 105.01C79.6341 105.22 79.8675 105.325 80.1475 105.325C80.5908 105.325 81.1275 105.045 81.7575 104.485C82.3875 103.902 83.2391 102.968 84.3125 101.685C84.5925 101.358 84.9075 101.195 85.2575 101.195C85.5608 101.195 85.7941 101.335 85.9575 101.615C86.1441 101.895 86.2375 102.28 86.2375 102.77C86.2375 103.703 86.0158 104.427 85.5725 104.94C84.6158 106.13 83.6008 107.133 82.5275 107.95C81.4541 108.767 80.4158 109.175 79.4125 109.175C78.6425 109.175 77.9308 108.918 77.2775 108.405C76.6475 107.868 76.1691 107.145 75.8425 106.235C74.6291 108.195 73.1008 109.175 71.2575 109.175ZM72.5175 105.64C73.0308 105.64 73.5208 105.337 73.9875 104.73C74.4541 104.123 74.7925 103.318 75.0025 102.315L76.2975 95.875C75.3175 95.8983 74.4075 96.2717 73.5675 96.995C72.7508 97.695 72.0975 98.6283 71.6075 99.795C71.1175 100.962 70.8725 102.198 70.8725 103.505C70.8725 104.228 71.0125 104.765 71.2925 105.115C71.5958 105.465 72.0041 105.64 72.5175 105.64ZM101.06 98.36C101.13 98.3367 101.246 98.325 101.41 98.325C101.76 98.325 102.028 98.4417 102.215 98.675C102.401 98.9083 102.495 99.2233 102.495 99.62C102.495 100.343 102.355 100.915 102.075 101.335C101.795 101.732 101.375 102.023 100.815 102.21C99.7414 102.56 98.598 102.735 97.3847 102.735C96.358 102.735 95.3897 102.595 94.4797 102.315C93.803 103.412 93.0564 104.543 92.2397 105.71C91.3064 107.04 90.5014 107.95 89.8247 108.44C89.148 108.93 88.378 109.175 87.5147 109.175C86.558 109.175 85.7997 108.802 85.2397 108.055C84.703 107.308 84.3647 106.13 84.2247 104.52C83.9447 101.253 83.8047 98.395 83.8047 95.945V94.72C83.828 93.95 84.038 93.4133 84.4347 93.11C84.8314 92.8067 85.4264 92.655 86.2197 92.655C86.8264 92.655 87.2697 92.795 87.5497 93.075C87.853 93.3317 88.0047 93.775 88.0047 94.405C88.0047 97.0883 88.168 100.577 88.4947 104.87C89.8947 102.793 90.9447 101.137 91.6447 99.9C91.2947 99.2233 91.1197 98.4183 91.1197 97.485C91.1197 96.6917 91.2947 95.9217 91.6447 95.175C91.9947 94.4283 92.473 93.8217 93.0797 93.355C93.6864 92.8883 94.3747 92.655 95.1447 92.655C95.8214 92.655 96.3697 92.9 96.7897 93.39C97.2097 93.8567 97.4197 94.545 97.4197 95.455C97.4197 96.505 97.1397 97.7067 96.5797 99.06C97.4664 99.0133 98.6447 98.8383 100.115 98.535L101.06 98.36ZM115.067 101.195C115.371 101.195 115.604 101.335 115.767 101.615C115.954 101.895 116.047 102.28 116.047 102.77C116.047 103.703 115.826 104.427 115.382 104.94C114.519 105.99 113.294 106.958 111.707 107.845C110.144 108.732 108.464 109.175 106.667 109.175C104.217 109.175 102.316 108.51 100.962 107.18C99.609 105.85 98.9323 104.03 98.9323 101.72C98.9323 100.11 99.2707 98.6167 99.9473 97.24C100.624 95.84 101.557 94.7317 102.747 93.915C103.961 93.0983 105.326 92.69 106.842 92.69C108.196 92.69 109.281 93.0983 110.097 93.915C110.914 94.7083 111.322 95.7933 111.322 97.17C111.322 98.78 110.739 100.168 109.572 101.335C108.429 102.478 106.481 103.388 103.727 104.065C104.311 105.138 105.419 105.675 107.052 105.675C108.102 105.675 109.292 105.313 110.622 104.59C111.976 103.843 113.142 102.875 114.122 101.685C114.402 101.358 114.717 101.195 115.067 101.195ZM106.247 96.12C105.384 96.12 104.649 96.6217 104.042 97.625C103.459 98.6283 103.167 99.8417 103.167 101.265V101.335C104.544 101.008 105.629 100.518 106.422 99.865C107.216 99.2117 107.612 98.4533 107.612 97.59C107.612 97.1467 107.484 96.7967 107.227 96.54C106.994 96.26 106.667 96.12 106.247 96.12ZM126.463 101.195C126.766 101.195 126.999 101.335 127.163 101.615C127.349 101.895 127.443 102.28 127.443 102.77C127.443 103.703 127.221 104.427 126.778 104.94C125.774 106.177 124.678 107.192 123.488 107.985C122.321 108.778 120.991 109.175 119.498 109.175C117.444 109.175 115.916 108.242 114.913 106.375C113.933 104.508 113.443 102.093 113.443 99.13C113.443 96.2833 113.804 93.04 114.528 89.4C115.274 85.76 116.359 82.6333 117.783 80.02C119.229 77.4067 120.944 76.1 122.928 76.1C124.048 76.1 124.923 76.625 125.553 77.675C126.206 78.7017 126.533 80.1833 126.533 82.12C126.533 84.8967 125.763 88.1167 124.223 91.78C122.683 95.4433 120.594 99.0717 117.958 102.665C118.121 103.622 118.389 104.31 118.763 104.73C119.136 105.127 119.626 105.325 120.233 105.325C121.189 105.325 122.029 105.057 122.753 104.52C123.476 103.96 124.398 103.015 125.518 101.685C125.798 101.358 126.113 101.195 126.463 101.195ZM122.158 79.565C121.621 79.565 121.014 80.5333 120.338 82.47C119.661 84.4067 119.066 86.81 118.553 89.68C118.039 92.55 117.759 95.3033 117.713 97.94C119.369 95.21 120.688 92.48 121.668 89.75C122.648 86.9967 123.138 84.4883 123.138 82.225C123.138 80.4517 122.811 79.565 122.158 79.565ZM142.534 101.265C142.837 101.265 143.07 101.417 143.234 101.72C143.42 102 143.514 102.362 143.514 102.805C143.514 103.342 143.432 103.762 143.269 104.065C143.105 104.368 142.849 104.637 142.499 104.87L135.779 109.385C134.892 114.215 133.725 118.007 132.279 120.76C130.855 123.537 129.035 124.925 126.819 124.925C125.629 124.925 124.66 124.552 123.914 123.805C123.167 123.082 122.794 122.125 122.794 120.935C122.794 119.838 123.039 118.718 123.529 117.575C124.042 116.432 124.975 115.113 126.329 113.62C127.705 112.15 129.642 110.458 132.139 108.545L132.244 107.74C132.407 106.877 132.594 105.64 132.804 104.03C132.337 105.71 131.684 106.993 130.844 107.88C130.004 108.743 129.117 109.175 128.184 109.175C127.134 109.175 126.27 108.697 125.594 107.74C124.94 106.76 124.614 105.547 124.614 104.1C124.614 102.35 124.73 100.752 124.964 99.305C125.197 97.835 125.582 96.2833 126.119 94.65C126.352 93.95 126.679 93.4483 127.099 93.145C127.519 92.8417 128.184 92.69 129.094 92.69C129.607 92.69 129.957 92.7717 130.144 92.935C130.354 93.0983 130.459 93.3433 130.459 93.67C130.459 93.8567 130.33 94.4867 130.074 95.56C129.84 96.4233 129.654 97.205 129.514 97.905C129.327 98.8617 129.164 99.7833 129.024 100.67C128.884 101.533 128.814 102.245 128.814 102.805C128.814 103.692 129.059 104.135 129.549 104.135C129.899 104.135 130.33 103.785 130.844 103.085C131.38 102.385 131.94 101.323 132.524 99.9C133.13 98.4767 133.714 96.7267 134.274 94.65C134.46 93.95 134.74 93.4483 135.114 93.145C135.51 92.8417 136.094 92.69 136.864 92.69C137.4 92.69 137.774 92.76 137.984 92.9C138.194 93.04 138.299 93.2733 138.299 93.6C138.299 94.1833 137.995 96.19 137.389 99.62L136.479 105.255C138.275 103.902 140.025 102.665 141.729 101.545C142.032 101.358 142.3 101.265 142.534 101.265ZM127.204 121.53C127.787 121.53 128.44 120.853 129.164 119.5C129.887 118.147 130.61 115.895 131.334 112.745C129.537 114.262 128.23 115.638 127.414 116.875C126.62 118.135 126.224 119.232 126.224 120.165C126.224 120.562 126.294 120.888 126.434 121.145C126.597 121.402 126.854 121.53 127.204 121.53ZM145.045 109.175C143.715 109.175 142.63 108.65 141.79 107.6C140.973 106.55 140.565 105.173 140.565 103.47C140.565 101.603 140.997 99.8417 141.86 98.185C142.723 96.505 143.867 95.1633 145.29 94.16C146.737 93.1333 148.265 92.62 149.875 92.62C150.388 92.62 150.727 92.725 150.89 92.935C151.077 93.1217 151.228 93.4717 151.345 93.985C151.788 93.8917 152.278 93.845 152.815 93.845C153.375 93.845 153.807 93.985 154.11 94.265C154.413 94.545 154.565 94.9417 154.565 95.455C154.565 95.9917 154.448 96.925 154.215 98.255C153.958 99.6783 153.76 101.043 153.62 102.35C153.48 103.633 153.41 105.08 153.41 106.69C153.41 107.577 153.223 108.218 152.85 108.615C152.5 108.988 151.917 109.175 151.1 109.175C150.307 109.175 149.712 108.988 149.315 108.615C148.942 108.218 148.755 107.588 148.755 106.725L148.79 106.165C148.067 108.172 146.818 109.175 145.045 109.175ZM146.41 105.64C147.063 105.64 147.658 105.185 148.195 104.275C148.732 103.365 149.21 101.743 149.63 99.41L150.295 95.875C149.338 95.8983 148.452 96.2717 147.635 96.995C146.818 97.695 146.165 98.6283 145.675 99.795C145.185 100.962 144.94 102.198 144.94 103.505C144.94 104.205 145.068 104.742 145.325 105.115C145.605 105.465 145.967 105.64 146.41 105.64Z" fill="#fff"/>
</svg>
